<?xml version="1.0" encoding="iso-8859-1"?>
<!-- Generator: Adobe Illustrator 21.0.0, SVG Export Plug-In . SVG Version: 6.00 Build 0)  -->
<svg xmlns="http://www.w3.org/2000/svg" xmlns:xlink="http://www.w3.org/1999/xlink" version="1.1" id="Capa_1" x="0px" y="0px" viewBox="0 0 512.016 512.016" style="enable-background:new 0 0 512.016 512.016;" xml:space="preserve" width="512" height="512">
<g>
	<g>
		<path style="fill:#803602;" d="M423.932,107.103h-21.874c-8.284,0-15-6.716-15-15s6.716-15,15-15h21.874c8.284,0,15,6.716,15,15    S432.216,107.103,423.932,107.103z"/>
	</g>
	<g>
		<path style="fill:#A24603;" d="M225.918,469.98c-8.284,0-15-6.716-15-15v-50.478c0-8.284,6.716-15,15-15s15,6.716,15,15v50.478    C240.918,463.264,234.203,469.98,225.918,469.98z"/>
	</g>
	<g>
		<path style="fill:#6F2E01;" d="M285.919,469.98c-8.284,0-15-6.716-15-15v-54.532c0-8.284,6.716-15,15-15s15,6.716,15,15v54.532    C300.919,463.264,294.204,469.98,285.919,469.98z"/>
	</g>
	<path style="fill:#FFE470;" d="M386.972,155.377c16.491-16.705,26.021-39.457,26.021-63.274c0-49.626-40.374-90-90-90   s-89.999,40.374-89.999,90c0,0.372,0.02,0.736,0.024,1.108L83.27,246.528c-2.968,3.038-4.374,7.015-4.251,10.949   c-0.056,1.586,0.127,3.207,0.605,4.812l24.604,82.614c0.482,1.619,1.234,3.146,2.226,4.515   c31.982,44.184,83.642,70.562,138.187,70.562c94.064,0,170.592-76.527,170.592-170.592   C415.233,216.08,405.261,183.132,386.972,155.377z"/>
	<path style="fill:#FDBF00;" d="M386.972,155.377c16.491-16.705,26.021-39.457,26.021-63.274c0-49.626-40.374-90-90-90   c-26.581,0-50.503,11.586-66.992,29.969v387.52c88.788-5.867,159.232-79.958,159.232-170.205   C415.233,216.08,405.261,183.132,386.972,155.377z"/>
	<g>
		<path style="fill-rule:evenodd;clip-rule:evenodd;fill:#EEE1DC;" d="M358,87.008c8.262,0,15-6.739,15-15c0-8.262-6.738-15-15-15    c-8.262,0-15,6.738-15,15C343,80.27,349.738,87.008,358,87.008z"/>
	</g>
	<path style="fill:#B34F03;" d="M497.016,449.979h-40.82l4.346-4.288c5.897-5.817,5.962-15.315,0.144-21.212   c-5.818-5.899-15.315-5.963-21.212-0.144l-25.993,25.644H15c-8.284,0-15,6.716-15,15s6.716,15,15,15h278.551l25.961,25.612   c2.922,2.884,6.729,4.322,10.533,4.322c3.873,0,7.744-1.491,10.679-4.466c5.818-5.896,5.754-15.395-0.144-21.212l-4.315-4.257   h160.75c8.284,0,15-6.716,15-15S505.3,449.979,497.016,449.979z"/>
	<g>
		<path style="fill:#FF9100;" d="M15,351.157c-6.05,0-11.507-3.634-13.84-9.216c-2.334-5.583-1.083-12.022,3.17-16.327    l123.616-125.102c17.031-18.694,41.265-29.409,66.547-29.409c49.626,0,89.999,40.374,89.999,90    c0,24.323-9.546,47.107-26.88,64.157c-17.308,17.024-40.191,26.182-64.516,25.826l-178.091,0.07    C15.004,351.157,15.002,351.157,15,351.157z"/>
	</g>
	<path style="fill:#FF9100;" d="M256,195.466v131.305c0.537-0.504,1.085-0.992,1.612-1.51c17.334-17.05,26.88-39.834,26.88-64.157   C284.493,235.242,273.525,211.898,256,195.466z"/>
	<path style="fill:#803602;" d="M497.016,449.979h-40.82l4.346-4.288c5.897-5.817,5.962-15.315,0.144-21.212   c-5.818-5.899-15.315-5.963-21.212-0.144l-25.993,25.644H256v30h37.551l25.961,25.612c2.922,2.884,6.729,4.322,10.533,4.322   c3.873,0,7.744-1.491,10.679-4.466c5.818-5.896,5.754-15.395-0.144-21.212l-4.315-4.257h160.75c8.284,0,15-6.716,15-15   S505.3,449.979,497.016,449.979z"/>
</g>















</svg>
